<svg width="1200" height="360" viewBox="0 0 1200 360" fill="none" xmlns="http://www.w3.org/2000/svg" role="img" aria-labelledby="title desc">
  <title id="title">Baner profilu GitHub Jakuba Lewosza</title>
  <desc id="desc">Ciemny techniczny baner z imieniem i nazwiskiem Jakub Lewosz oraz kierunkiem rozwoju: automatyzacja z AI, aplikacje webowe i praktyczne narzędzia.</desc>
  <defs>
    <linearGradient id="bg" x1="0" y1="0" x2="1200" y2="360" gradientUnits="userSpaceOnUse">
      <stop offset="0" stop-color="#0B1020"/>
      <stop offset="0.52" stop-color="#101827"/>
      <stop offset="1" stop-color="#09221F"/>
    </linearGradient>
    <linearGradient id="accent" x1="178" y1="70" x2="1026" y2="330" gradientUnits="userSpaceOnUse">
      <stop stop-color="#38BDF8"/>
      <stop offset="0.45" stop-color="#22C55E"/>
      <stop offset="1" stop-color="#F59E0B"/>
    </linearGradient>
    <filter id="shadow" x="-20%" y="-20%" width="140%" height="140%" color-interpolation-filters="sRGB">
      <feDropShadow dx="0" dy="18" stdDeviation="22" flood-color="#000000" flood-opacity="0.32"/>
    </filter>
  </defs>

  <rect width="1200" height="360" rx="30" fill="url(#bg)"/>
  <path d="M0 274C136 210 206 231 340 265C493 304 589 315 754 247C914 181 1046 202 1200 254V360H0V274Z" fill="#0E312F" opacity="0.72"/>
  <path d="M87 306C244 222 408 330 560 252C728 166 871 127 1110 216" stroke="url(#accent)" stroke-width="3" stroke-linecap="round" opacity="0.7"/>

  <g opacity="0.14">
    <path d="M74 78H1126" stroke="#E5E7EB"/>
    <path d="M74 126H1126" stroke="#E5E7EB"/>
    <path d="M74 174H1126" stroke="#E5E7EB"/>
    <path d="M74 222H1126" stroke="#E5E7EB"/>
    <path d="M74 270H1126" stroke="#E5E7EB"/>
    <path d="M158 34V326" stroke="#E5E7EB"/>
    <path d="M302 34V326" stroke="#E5E7EB"/>
    <path d="M446 34V326" stroke="#E5E7EB"/>
    <path d="M590 34V326" stroke="#E5E7EB"/>
    <path d="M734 34V326" stroke="#E5E7EB"/>
    <path d="M878 34V326" stroke="#E5E7EB"/>
    <path d="M1022 34V326" stroke="#E5E7EB"/>
  </g>

  <g transform="translate(726 74)" opacity="0.86">
    <rect x="0" y="0" width="332" height="210" rx="18" fill="#0B1220" stroke="#263244"/>
    <circle cx="30" cy="31" r="6" fill="#EF4444"/>
    <circle cx="52" cy="31" r="6" fill="#F59E0B"/>
    <circle cx="74" cy="31" r="6" fill="#22C55E"/>
    <path d="M32 78H92" stroke="#38BDF8" stroke-width="8" stroke-linecap="round"/>
    <path d="M112 78H246" stroke="#CBD5E1" stroke-width="8" stroke-linecap="round" opacity="0.72"/>
    <path d="M32 112H142" stroke="#22C55E" stroke-width="8" stroke-linecap="round"/>
    <path d="M162 112H286" stroke="#CBD5E1" stroke-width="8" stroke-linecap="round" opacity="0.56"/>
    <path d="M32 146H70" stroke="#F59E0B" stroke-width="8" stroke-linecap="round"/>
    <path d="M90 146H226" stroke="#CBD5E1" stroke-width="8" stroke-linecap="round" opacity="0.66"/>
  </g>

  <g filter="url(#shadow)">
    <text x="90" y="139" fill="#F8FAFC" font-family="Inter, Segoe UI, Arial, sans-serif" font-size="58" font-weight="800" letter-spacing="0">Jakub Lewosz</text>
    <text x="94" y="190" fill="#CBD5E1" font-family="Inter, Segoe UI, Arial, sans-serif" font-size="24" font-weight="500">Automatyzacja z AI • Web apps • Narzędzia</text>
    <rect x="94" y="224" width="78" height="42" rx="21" fill="#10271F" stroke="#24513C"/>
    <text x="125" y="251" fill="#86EFAC" font-family="Inter, Segoe UI, Arial, sans-serif" font-size="17" font-weight="700">AI</text>
    <rect x="188" y="224" width="162" height="42" rx="21" fill="#122034" stroke="#23445B"/>
    <text x="218" y="251" fill="#7DD3FC" font-family="Inter, Segoe UI, Arial, sans-serif" font-size="17" font-weight="700">Automatyzacja</text>
    <rect x="366" y="224" width="134" height="42" rx="21" fill="#241B2D" stroke="#514061"/>
    <text x="398" y="251" fill="#E9D5FF" font-family="Inter, Segoe UI, Arial, sans-serif" font-size="17" font-weight="700">Web apps</text>
  </g>
</svg>
